<svg width="93" height="92" viewBox="0 0 93 92" fill="none" xmlns="http://www.w3.org/2000/svg">
<path d="M52.4693 48.1107C52.3319 48.1544 52.1871 48.1704 52.0434 48.1578C51.8997 48.1452 51.76 48.1042 51.6323 48.0371C51.5046 47.9701 51.3914 47.8784 51.2994 47.7673C51.2074 47.6562 51.1384 47.528 51.0963 47.39C51.0542 47.252 51.0399 47.1071 51.0543 46.9636C51.0686 46.8201 51.1113 46.6808 51.1799 46.5539C51.2484 46.427 51.3415 46.315 51.4536 46.2243C51.5658 46.1336 51.6949 46.0661 51.8333 46.0257C54.1658 45.2583 56.6373 45.0078 59.0763 45.2917C60.5375 45.295 61.9759 44.929 63.2579 44.2278C64.5398 43.5266 65.6239 42.5128 66.4093 41.2807C67.1045 40.1887 67.54 38.9518 67.6823 37.6651C67.8247 36.3784 67.67 35.0762 67.2303 33.8587C67.1412 33.5886 67.1612 33.2944 67.286 33.0389C67.4108 32.7833 67.6306 32.5867 67.8983 32.4909C68.1661 32.3951 68.4607 32.4078 68.7193 32.5262C68.9779 32.6446 69.1799 32.8594 69.2823 33.1247C70.2082 35.7171 70.1002 38.5666 68.9807 41.0815C67.8612 43.5964 65.8163 45.5837 63.2703 46.6307C65.6511 47.9589 67.6578 49.8669 69.1043 52.1777C69.2587 52.4184 69.3122 52.7101 69.2535 52.9899C69.1948 53.2698 69.0284 53.5153 68.7903 53.6736C68.5522 53.832 68.2615 53.8904 67.9807 53.8364C67.6999 53.7823 67.4516 53.6201 67.2893 53.3847C63.6473 47.9047 58.7983 46.1777 52.4693 48.1107ZM41.1633 46.0257C38.8309 45.2583 36.3593 45.0078 33.9203 45.2917C32.4591 45.295 31.0207 44.929 29.7388 44.2278C28.4568 43.5266 27.3728 42.5128 26.5873 41.2807C25.8921 40.1887 25.4566 38.9518 25.3143 37.6651C25.172 36.3784 25.3266 35.0762 25.7663 33.8587C25.8554 33.5886 25.8354 33.2944 25.7106 33.0389C25.5858 32.7833 25.3661 32.5867 25.0983 32.4909C24.8305 32.3951 24.5359 32.4078 24.2774 32.5262C24.0188 32.6446 23.8167 32.8594 23.7143 33.1247C22.7884 35.7171 22.8965 38.5666 24.0159 41.0815C25.1354 43.5964 27.1804 45.5837 29.7263 46.6307C27.3456 47.9589 25.3388 49.8669 23.8923 52.1777C23.738 52.4184 23.6844 52.7101 23.7431 52.9899C23.8019 53.2698 23.9682 53.5153 24.2063 53.6736C24.4444 53.832 24.7352 53.8904 25.016 53.8364C25.2967 53.7823 25.545 53.6201 25.7073 53.3847C29.3493 47.9027 34.1963 46.1777 40.5273 48.1107C40.6648 48.1544 40.8095 48.1704 40.9532 48.1578C41.0969 48.1452 41.2366 48.1042 41.3644 48.0371C41.4921 47.9701 41.6052 47.8784 41.6972 47.7673C41.7892 47.6562 41.8583 47.528 41.9004 47.39C41.9424 47.252 41.9567 47.1071 41.9424 46.9636C41.928 46.8201 41.8853 46.6808 41.8168 46.5539C41.7482 46.427 41.6552 46.315 41.543 46.2243C41.4308 46.1336 41.3018 46.0661 41.1633 46.0257ZM36.8453 30.8047C37.1116 30.9113 37.4093 30.9087 37.6737 30.7973C37.938 30.686 38.1479 30.4749 38.2576 30.2098C38.3674 29.9448 38.3682 29.6471 38.26 29.3815C38.1517 29.1158 37.9431 28.9035 37.6793 28.7907C31.5633 26.2587 28.9183 21.8457 29.5913 15.2997C29.6095 15.1556 29.5986 15.0093 29.5594 14.8695C29.5203 14.7297 29.4535 14.5991 29.3632 14.4854C29.2728 14.3717 29.1606 14.2772 29.0333 14.2075C28.9059 14.1377 28.7658 14.0942 28.6214 14.0793C28.4769 14.0644 28.3309 14.0786 28.192 14.1209C28.0531 14.1633 27.9241 14.233 27.8125 14.3259C27.7009 14.4188 27.6089 14.5331 27.5421 14.662C27.4753 14.7909 27.4349 14.9319 27.4233 15.0767C26.6493 22.5987 29.8193 27.8907 36.8453 30.8047ZM36.1593 61.1307C34.0698 61.7768 32.1436 62.8647 30.5114 64.3205C28.8792 65.7764 27.5791 67.5663 26.6993 69.5687C24.2658 68.9469 21.7181 68.9229 19.2733 69.4987C19.1964 68.4446 18.8651 67.4249 18.3077 66.5269C17.7504 65.629 16.9837 64.8795 16.0733 64.3427C15.8224 64.1991 15.5248 64.161 15.2458 64.2369C14.9668 64.3127 14.7294 64.4963 14.5858 64.7472C14.4422 64.9981 14.4041 65.2957 14.48 65.5747C14.5559 65.8537 14.7394 66.0911 14.9903 66.2347C15.7464 66.6913 16.3482 67.3642 16.7179 68.1664C17.0877 68.9686 17.2083 69.8632 17.0643 70.7347C17.0371 70.9148 17.0555 71.0988 17.1178 71.27C17.18 71.4412 17.2842 71.594 17.4208 71.7146C17.5573 71.8351 17.7219 71.9195 17.8995 71.9601C18.0771 72.0006 18.262 71.996 18.4373 71.9467C24.9153 70.1277 29.8023 71.9467 33.3773 77.4937C33.5345 77.7352 33.7809 77.9047 34.0627 77.9651C34.3445 78.0254 34.6387 77.9718 34.881 77.8158C35.1233 77.6598 35.294 77.4142 35.3557 77.1327C35.4174 76.8512 35.3651 76.5567 35.2103 76.3137C33.6674 73.7451 31.4264 71.6677 28.7483 70.3237C29.5094 68.6352 30.6206 67.1277 32.0085 65.9012C33.3963 64.6747 35.029 63.7573 36.7983 63.2097C36.9371 63.1694 37.0664 63.1018 37.1788 63.0111C37.2912 62.9203 37.3845 62.8081 37.4532 62.681C37.5218 62.5539 37.5645 62.4143 37.5788 62.2706C37.593 62.1268 37.5786 61.9816 37.5362 61.8435C37.4939 61.7053 37.4245 61.577 37.3321 61.4659C37.2397 61.3548 37.1261 61.2632 36.998 61.1964C36.8699 61.1297 36.7297 61.089 36.5858 61.0769C36.4418 61.0647 36.2968 61.0813 36.1593 61.1257V61.1307ZM55.7343 30.8827C55.8774 30.8829 56.0192 30.8547 56.1513 30.7997C63.1773 27.8907 66.3513 22.5997 65.5733 15.0717C65.5617 14.9269 65.5214 14.7859 65.4545 14.657C65.3877 14.5281 65.2958 14.4138 65.1842 14.3209C65.0726 14.228 64.9435 14.1583 64.8046 14.1159C64.6657 14.0736 64.5197 14.0594 64.3753 14.0743C64.2308 14.0892 64.0908 14.1327 63.9634 14.2025C63.836 14.2722 63.7238 14.3667 63.6335 14.4804C63.5431 14.5941 63.4764 14.7247 63.4372 14.8645C63.398 15.0043 63.3872 15.1506 63.4053 15.2947C64.0783 21.8407 61.4333 26.2537 55.3173 28.7857C55.0824 28.881 54.8881 29.0552 54.7678 29.2782C54.6475 29.5013 54.6086 29.7594 54.658 30.008C54.7074 30.2566 54.8419 30.4803 55.0383 30.6404C55.2347 30.8006 55.4809 30.8874 55.7343 30.8857V30.8827ZM76.9243 64.3377C76.0139 64.8745 75.2472 65.624 74.6899 66.5219C74.1326 67.4199 73.8013 68.4396 73.7243 69.4937C71.2796 68.9179 68.7318 68.9419 66.2983 69.5637C65.4186 67.5613 64.1185 65.7714 62.4863 64.3155C60.8541 62.8597 58.9279 61.7718 56.8383 61.1257C56.7008 61.0813 56.5559 61.0647 56.4119 61.0769C56.2679 61.089 56.1278 61.1297 55.9997 61.1964C55.8715 61.2632 55.758 61.3548 55.6656 61.4659C55.5732 61.577 55.5038 61.7053 55.4614 61.8435C55.4191 61.9816 55.4046 62.1268 55.4189 62.2706C55.4331 62.4143 55.4758 62.5539 55.5445 62.681C55.6131 62.8081 55.7064 62.9203 55.8188 63.0111C55.9312 63.1018 56.0606 63.1694 56.1993 63.2097C57.9685 63.7568 59.6012 64.6738 60.9892 65.8997C62.3772 67.1257 63.4888 68.6326 64.2503 70.3207C61.5723 71.6647 59.3313 73.7421 57.7883 76.3107C57.71 76.431 57.6563 76.5657 57.6301 76.7069C57.604 76.8481 57.6061 76.993 57.6361 77.1334C57.6662 77.2738 57.7237 77.4069 57.8054 77.525C57.887 77.6431 57.9912 77.7439 58.112 77.8216C58.2327 77.8993 58.3676 77.9524 58.5089 77.9779C58.6502 78.0033 58.7952 78.0006 58.9354 77.9698C59.0757 77.9391 59.2085 77.8809 59.3262 77.7987C59.4439 77.7165 59.5442 77.6118 59.6213 77.4907C63.1963 71.9387 68.0833 70.1247 74.5613 71.9437C74.7367 71.993 74.9216 71.9976 75.0992 71.9571C75.2767 71.9165 75.4413 71.8321 75.5779 71.7116C75.7144 71.591 75.8186 71.4382 75.8809 71.267C75.9431 71.0958 75.9615 70.9118 75.9343 70.7317C75.7903 69.8602 75.911 68.9656 76.2807 68.1634C76.6504 67.3612 77.2522 66.6883 78.0083 66.2317C78.2592 66.0881 78.4428 65.8507 78.5186 65.5717C78.5945 65.2927 78.5564 64.9951 78.4128 64.7442C78.2692 64.4933 78.0318 64.3097 77.7528 64.2339C77.4739 64.158 77.1762 64.1961 76.9253 64.3397L76.9243 64.3377ZM92.6183 60.8977C92.4521 61.4969 92.2329 62.0803 91.9633 62.6407C93.1283 68.3407 91.8403 74.2407 88.5633 78.1337C87.3304 79.611 85.7761 80.7871 84.0193 81.572C82.2624 82.3569 80.3494 82.73 78.4263 82.6627C76.6859 85.4578 74.216 87.7253 71.2826 89.2208C68.3491 90.7164 65.0633 91.3835 61.7789 91.1502C58.4944 90.9169 55.3359 89.792 52.6433 87.8968C49.9507 86.0016 47.8261 83.4078 46.4983 80.3947C45.1703 83.4073 43.0457 86.0006 40.3534 87.8955C37.661 89.7904 34.5027 90.915 31.2187 91.1483C27.9346 91.3816 24.6491 90.7147 21.7159 89.2195C18.7827 87.7243 16.3129 85.4573 14.5723 82.6627C12.6493 82.7295 10.7365 82.3563 8.97965 81.5714C7.22286 80.7865 5.66855 79.6107 4.43532 78.1337C1.15632 74.2437 -0.13168 68.3397 1.03532 62.6407C0.07828 60.6531 -0.225662 58.4137 0.16697 56.2429C0.559602 54.0721 1.62869 52.0811 3.22132 50.5547C2.54543 49.1283 2.13441 47.591 2.00832 46.0177C1.84929 43.8048 2.24248 41.5871 3.15256 39.5637C4.06264 37.5404 5.46111 35.7748 7.22232 34.4257C6.48223 32.1796 6.38754 29.771 6.94903 27.4737C7.51051 25.1765 8.70561 23.0831 10.3983 21.4317C12.0552 19.7598 14.1093 18.536 16.3683 17.8747C15.78 16.325 15.6165 14.6463 15.8948 13.0122C16.1731 11.3782 16.8831 9.8482 17.9513 8.58068C19.099 7.22184 20.5623 6.16496 22.213 5.50251C23.8637 4.84006 25.6516 4.59222 27.4203 4.78068C28.3274 3.5254 29.4802 2.46759 30.8087 1.6715C32.1372 0.875413 33.6136 0.35766 35.1483 0.149684C37.2935 -0.197435 39.493 0.0619851 41.4985 0.898661C43.5041 1.73534 45.2358 3.11596 46.4983 4.88468C47.7618 3.11618 49.4944 1.73605 51.5007 0.900084C53.5069 0.0641144 55.7069 -0.194413 57.8523 0.153684C59.387 0.36166 60.8635 0.879413 62.1919 1.6755C63.5204 2.47159 64.6732 3.5294 65.5803 4.78468C67.349 4.59622 69.1369 4.84406 70.7876 5.50651C72.4384 6.16896 73.9016 7.22584 75.0493 8.58468C76.1175 9.8522 76.8275 11.3822 77.1058 13.0162C77.3841 14.6503 77.2207 16.329 76.6323 17.8787C78.8913 18.54 80.9454 19.7638 82.6023 21.4357C84.2943 23.0875 85.4887 25.1812 86.0495 27.4784C86.6102 29.7755 86.5149 32.184 85.7743 34.4297C87.5349 35.7785 88.933 37.5434 89.8431 39.566C90.7532 41.5885 91.1467 43.8055 90.9883 46.0177C90.8622 47.591 90.4512 49.1283 89.7753 50.5547C91.1391 51.8613 92.1235 53.5128 92.624 55.3339C93.1246 57.155 93.1226 59.0776 92.6183 60.8977ZM45.4083 76.8517V7.37168C44.5031 5.58073 43.0509 4.12467 41.2624 3.21467C39.4739 2.30467 37.4419 1.98803 35.4613 2.31068C34.1226 2.4858 32.8389 2.95384 31.7016 3.6815C30.5643 4.40916 29.6014 5.37855 28.8813 6.52068C28.7687 6.7046 28.6041 6.85101 28.4083 6.94142C28.2125 7.03184 27.9944 7.0622 27.7813 7.02868C26.2851 6.76798 24.7468 6.90184 23.3181 7.41705C21.8894 7.93227 20.6198 8.81104 19.6343 9.96668C18.6908 11.0767 18.1116 12.4501 17.9753 13.9006C17.839 15.351 18.1522 16.8083 18.8723 18.0747C18.9587 18.2254 19.0079 18.3946 19.0157 18.5681C19.0235 18.7416 18.9898 18.9145 18.9173 19.0724C18.8448 19.2303 18.7357 19.3686 18.599 19.4758C18.4623 19.583 18.3019 19.656 18.1313 19.6887C15.7847 20.1291 13.6274 21.2723 11.9453 22.9667C10.2335 24.628 9.14135 26.8249 8.8503 29.1926C8.55926 31.5602 9.08679 33.9562 10.3453 35.9827C10.4895 36.2287 10.5315 36.5214 10.4624 36.798C10.3933 37.0747 10.2185 37.3132 9.97553 37.4625C9.73258 37.6118 9.44081 37.6599 9.16279 37.5966C8.88477 37.5332 8.64263 37.3635 8.48832 37.1237C8.36332 36.9237 8.24632 36.7137 8.13332 36.5057C6.78583 37.6415 5.72589 39.0797 5.03995 40.703C4.35402 42.3263 4.06152 44.0888 4.18632 45.8467C4.62432 51.3987 9.30932 55.9307 15.3273 56.6217C15.6044 56.6532 15.8589 56.7898 16.0384 57.0032C16.2179 57.2167 16.3087 57.4909 16.2922 57.7693C16.2757 58.0477 16.1531 58.3092 15.9496 58.4999C15.7461 58.6907 15.4772 58.7962 15.1983 58.7947C15.1573 58.7947 15.1153 58.7947 15.0733 58.7877C12.9437 58.5608 10.8867 57.8838 9.03852 56.8016C7.19037 55.7195 5.59335 54.2568 4.35332 52.5107C3.33324 53.6234 2.63665 54.9938 2.33883 56.4737C2.04101 57.9536 2.15327 59.4867 2.6635 60.9075C3.17373 62.3282 4.06251 63.5825 5.2338 64.5348C6.4051 65.4871 7.81437 66.1012 9.30932 66.3107C9.58185 66.3497 9.82953 66.4904 10.0026 66.7045C10.1757 66.9186 10.2613 67.1902 10.2423 67.4649C10.2233 67.7395 10.1011 67.9968 9.90021 68.1851C9.69931 68.3733 9.43463 68.4786 9.15932 68.4797C9.10813 68.4795 9.05701 68.4758 9.00632 68.4687C6.65633 68.1394 4.48843 67.02 2.85932 65.2947C2.44138 69.3796 3.60006 73.4699 6.09832 76.7287C7.1945 78.027 8.58574 79.0438 10.1556 79.6939C11.7254 80.3441 13.4282 80.6087 15.1213 80.4657C15.3222 80.4555 15.5219 80.5011 15.6984 80.5975C15.8749 80.6938 16.0213 80.8372 16.1213 81.0117C17.7065 83.7732 20.0831 85.9961 22.9443 87.3933C25.8055 88.7906 29.0198 89.2981 32.1723 88.8502C35.3248 88.4024 38.2707 87.0198 40.6295 84.881C42.9884 82.7422 44.6519 79.9454 45.4053 76.8517H45.4083ZM90.1373 65.2917C88.5082 67.017 86.3403 68.1364 83.9903 68.4657C83.9396 68.4728 83.8885 68.4765 83.8373 68.4767C83.562 68.4756 83.2973 68.3703 83.0964 68.1821C82.8955 67.9938 82.7733 67.7365 82.7543 67.4619C82.7353 67.1872 82.821 66.9156 82.994 66.7015C83.1671 66.4874 83.4148 66.3467 83.6873 66.3077C85.1823 66.0982 86.5915 65.4841 87.7628 64.5318C88.9341 63.5795 89.8229 62.3252 90.3331 60.9045C90.8434 59.4837 90.9556 57.9506 90.6578 56.4707C90.36 54.9908 89.6634 53.6204 88.6433 52.5077C87.4032 54.2539 85.806 55.7167 83.9577 56.7988C82.1093 57.881 80.0521 58.5579 77.9223 58.7847C77.8803 58.7847 77.8383 58.7917 77.7973 58.7917C77.519 58.7916 77.2512 58.685 77.0489 58.4938C76.8466 58.3026 76.7251 58.0412 76.7094 57.7633C76.6937 57.4854 76.7849 57.212 76.9643 56.9991C77.1437 56.7863 77.3977 56.6502 77.6743 56.6187C83.6923 55.9277 88.3743 51.3957 88.8153 45.8437C88.9398 44.0861 88.6471 42.324 87.9612 40.7011C87.2753 39.0781 86.2155 37.6402 84.8683 36.5047C84.7553 36.7127 84.6383 36.9187 84.5133 37.1227C84.44 37.2478 84.3424 37.3571 84.2263 37.444C84.1102 37.531 83.9779 37.5939 83.8372 37.629C83.6964 37.6642 83.5501 37.6709 83.4067 37.6488C83.2634 37.6267 83.1259 37.5762 83.0023 37.5003C82.8787 37.4243 82.7715 37.3245 82.687 37.2066C82.6025 37.0887 82.5424 36.9551 82.5101 36.8137C82.4779 36.6723 82.4743 36.5258 82.4994 36.3829C82.5245 36.2401 82.5778 36.1037 82.6563 35.9817C83.9148 33.9552 84.4424 31.5592 84.1513 29.1916C83.8603 26.8239 82.7682 24.627 81.0563 22.9657C79.3742 21.2713 77.2169 20.1281 74.8703 19.6877C74.6997 19.655 74.5394 19.582 74.4027 19.4748C74.266 19.3676 74.1568 19.2293 74.0844 19.0714C74.0119 18.9135 73.9781 18.7406 73.986 18.5671C73.9938 18.3936 74.0429 18.2244 74.1293 18.0737C74.8495 16.8073 75.1627 15.35 75.0263 13.8996C74.89 12.4491 74.3108 11.0757 73.3673 9.96568C72.382 8.80988 71.1123 7.931 69.6836 7.41577C68.2549 6.90054 66.7165 6.76678 65.2203 7.02768C65.0073 7.0612 64.7891 7.03084 64.5933 6.94042C64.3975 6.85001 64.2329 6.7036 64.1203 6.51968C63.4003 5.37755 62.4374 4.40816 61.3001 3.6805C60.1628 2.95284 58.8791 2.4848 57.5403 2.30968C55.5588 1.98582 53.5256 2.30198 51.736 3.21225C49.9464 4.12252 48.4935 5.57951 47.5883 7.37168V76.8517C48.3417 79.9454 50.0053 82.7422 52.3641 84.881C54.723 87.0198 57.6688 88.4024 60.8213 88.8502C63.9738 89.2981 67.1881 88.7906 70.0493 87.3933C72.9105 85.9961 75.2871 83.7732 76.8723 81.0117C76.9722 80.8371 77.1185 80.6936 77.2951 80.5972C77.4716 80.5008 77.6714 80.4553 77.8723 80.4657C79.566 80.6094 81.2694 80.3451 82.8398 79.6949C84.4102 79.0447 85.802 78.0275 86.8983 76.7287C89.3973 73.4691 90.556 69.3776 90.1373 65.2917Z" fill="#BEBEBE"/>
</svg>
