<svg width="58" height="58" viewBox="0 0 58 58" fill="none" xmlns="http://www.w3.org/2000/svg">
<g clip-path="url(#clip0_809_231)">
<path d="M57.3901 0.109863H48.2501H38.6201H29.0001H19.3801H9.75011H0.610107C0.330107 0.109863 0.110107 0.329863 0.110107 0.609863V9.74986V19.3799V28.9999V38.6199V48.2499V57.3899C0.110107 57.6699 0.330107 57.8899 0.610107 57.8899H9.75011H19.3801H29.0001H38.6201H48.2501H57.3901C57.6701 57.8899 57.8901 57.6699 57.8901 57.3899V48.2499V38.6199V28.9999V19.3799V9.74986V0.609863C57.8901 0.329863 57.6701 0.109863 57.3901 0.109863ZM9.25011 47.7499H1.11011V39.1199H9.25011V47.7499ZM9.25011 28.4999H1.11011V19.8799H9.25011V28.4999ZM9.25011 9.24986H1.11011V1.10986H9.25011V9.24986ZM18.8801 56.8899H10.2501V48.7499H18.8801V56.8899ZM18.8801 38.1199H10.2501V29.4999H18.8801V38.1199ZM18.8801 18.8799H10.2501V10.2499H18.8801V18.8799ZM28.5001 47.7499H19.8801V39.1199H28.5001V47.7499ZM28.5001 28.4999H19.8801V19.8799H28.5001V28.4999ZM28.5001 9.24986H19.8801V1.10986H28.5001V9.24986ZM38.1201 56.8899H29.5001V48.7499H38.1201V56.8899ZM38.1201 38.1199H29.5001V29.4999H38.1201V38.1199ZM38.1201 18.8799H29.5001V10.2499H38.1201V18.8799ZM47.7501 47.7499H39.1201V39.1199H47.7501V47.7499ZM47.7501 28.4999H39.1201V19.8799H47.7501V28.4999ZM47.7501 9.24986H39.1201V1.10986H47.7501V9.24986ZM56.8901 56.8899H48.7501V48.7499H56.8901V56.8899ZM56.8901 38.1199H48.7501V29.4999H56.8901V38.1199ZM56.8901 18.8799H48.7501V10.2499H56.8901V18.8799Z" fill="white"/>
</g>
<defs>
<clipPath id="clip0_809_231">
<rect width="58" height="58" fill="white"/>
</clipPath>
</defs>
</svg>
