<svg width="64" height="66" viewBox="0 0 64 66" fill="none" xmlns="http://www.w3.org/2000/svg">
<path d="M38 34H26C25.2044 34 24.4413 33.6839 23.8787 33.1213C23.3161 32.5587 23 31.7956 23 31C23 30.2044 23.3161 29.4413 23.8787 28.8787C24.4413 28.3161 25.2044 28 26 28H38C38.7956 28 39.5587 28.3161 40.1213 28.8787C40.6839 29.4413 41 30.2044 41 31C41 31.7956 40.6839 32.5587 40.1213 33.1213C39.5587 33.6839 38.7956 34 38 34ZM26 30C25.7348 30 25.4804 30.1054 25.2929 30.2929C25.1054 30.4804 25 30.7348 25 31C25 31.2652 25.1054 31.5196 25.2929 31.7071C25.4804 31.8946 25.7348 32 26 32H38C38.2652 32 38.5196 31.8946 38.7071 31.7071C38.8946 31.5196 39 31.2652 39 31C39 30.7348 38.8946 30.4804 38.7071 30.2929C38.5196 30.1054 38.2652 30 38 30H26Z" fill="white"/>
<path d="M38 30H26C25.7348 30 25.4804 29.8946 25.2929 29.7071C25.1054 29.5196 25 29.2652 25 29C25 27.9391 25.4214 26.9217 26.1716 26.1716C26.9217 25.4214 27.9391 25 29 25H35C36.0609 25 37.0783 25.4214 37.8284 26.1716C38.5786 26.9217 39 27.9391 39 29C39 29.2652 38.8946 29.5196 38.7071 29.7071C38.5196 29.8946 38.2652 30 38 30ZM27.269 28H36.731C36.5556 27.6961 36.3032 27.4437 35.9994 27.2682C35.6956 27.0927 35.3509 27.0002 35 27H29C28.6491 27.0002 28.3044 27.0927 28.0006 27.2682C27.6968 27.4437 27.4444 27.6961 27.269 28Z" fill="white"/>
<path d="M37 27H27C26.2044 27 25.4413 26.6839 24.8787 26.1213C24.3161 25.5587 24 24.7956 24 24C24 23.2044 24.3161 22.4413 24.8787 21.8787C25.4413 21.3161 26.2044 21 27 21H37C37.7956 21 38.5587 21.3161 39.1213 21.8787C39.6839 22.4413 40 23.2044 40 24C40 24.7956 39.6839 25.5587 39.1213 26.1213C38.5587 26.6839 37.7956 27 37 27ZM27 23C26.7348 23 26.4804 23.1054 26.2929 23.2929C26.1054 23.4804 26 23.7348 26 24C26 24.2652 26.1054 24.5196 26.2929 24.7071C26.4804 24.8946 26.7348 25 27 25H37C37.2652 25 37.5196 24.8946 37.7071 24.7071C37.8946 24.5196 38 24.2652 38 24C38 23.7348 37.8946 23.4804 37.7071 23.2929C37.5196 23.1054 37.2652 23 37 23H27Z" fill="white"/>
<path d="M37 23H27C26.7848 23 26.5754 22.9307 26.4028 22.8022C26.2303 22.6738 26.1037 22.4931 26.042 22.287L23.814 14.861C23.6798 14.4131 23.6521 13.94 23.7333 13.4795C23.8144 13.019 24.002 12.5838 24.2813 12.2087C24.5605 11.8336 24.9235 11.529 25.3413 11.3191C25.7592 11.1092 26.2203 11 26.688 11H37.312C37.7796 11 38.2407 11.1092 38.6586 11.3191C39.0764 11.529 39.4394 11.8336 39.7187 12.2087C39.9979 12.5838 40.1855 13.019 40.2667 13.4795C40.3478 13.94 40.3202 14.4131 40.186 14.861L37.958 22.287C37.8962 22.4931 37.7697 22.6738 37.5971 22.8022C37.4245 22.9307 37.2151 23 37 23ZM27.744 21H36.256L38.27 14.287C38.3147 14.1377 38.3239 13.98 38.2969 13.8265C38.2698 13.673 38.2073 13.5279 38.1142 13.4029C38.0211 13.2779 37.9001 13.1763 37.7608 13.1064C37.6215 13.0364 37.4678 13 37.312 13H26.688C26.5321 13 26.3784 13.0364 26.2391 13.1064C26.0998 13.1763 25.9788 13.2779 25.8857 13.4029C25.7927 13.5279 25.7301 13.673 25.7031 13.8265C25.676 13.98 25.6852 14.1377 25.73 14.287L27.744 21Z" fill="white"/>
<path d="M38 12H36V10H28V12H26V9C26 8.73478 26.1054 8.48043 26.2929 8.29289C26.4804 8.10536 26.7348 8 27 8H37C37.2652 8 37.5196 8.10536 37.7071 8.29289C37.8946 8.48043 38 8.73478 38 9V12Z" fill="white"/>
<path d="M32 10C31.0111 10 30.0444 9.70676 29.2222 9.15735C28.3999 8.60794 27.759 7.82705 27.3806 6.91342C27.0022 5.99979 26.9031 4.99446 27.0961 4.02455C27.289 3.05465 27.7652 2.16373 28.4645 1.46447C29.1637 0.765206 30.0546 0.289002 31.0246 0.0960759C31.9945 -0.0968503 32.9998 0.00216642 33.9134 0.380605C34.8271 0.759043 35.6079 1.39991 36.1574 2.22215C36.7068 3.0444 37 4.0111 37 5C36.9984 6.3256 36.4711 7.59644 35.5338 8.53378C34.5964 9.47112 33.3256 9.99841 32 10ZM32 2C31.4067 2 30.8266 2.17595 30.3333 2.50559C29.8399 2.83524 29.4554 3.30377 29.2284 3.85195C29.0013 4.40013 28.9419 5.00333 29.0576 5.58527C29.1734 6.16722 29.4591 6.70177 29.8787 7.12132C30.2982 7.54088 30.8328 7.8266 31.4147 7.94236C31.9967 8.05811 32.5999 7.9987 33.1481 7.77164C33.6962 7.54458 34.1648 7.16006 34.4944 6.66671C34.8241 6.17337 35 5.59335 35 5C35 4.20435 34.6839 3.44129 34.1213 2.87868C33.5587 2.31607 32.7957 2 32 2Z" fill="white"/>
<path d="M39.0001 48H25.0001C24.8509 48 24.7036 47.9667 24.569 47.9025C24.4343 47.8382 24.3158 47.7446 24.222 47.6286C24.1283 47.5126 24.0616 47.3771 24.027 47.232C23.9924 47.0869 23.9907 46.9358 24.0221 46.79L26.3801 35.79L28.3351 36.21L26.2371 46H37.7631L35.1911 34H28.0001V32H36.0001C36.2288 31.9999 36.4507 32.0783 36.6287 32.2221C36.8067 32.3659 36.93 32.5663 36.9781 32.79L39.9781 46.79C40.0094 46.9358 40.0077 47.0869 39.9731 47.232C39.9385 47.3771 39.8718 47.5126 39.7781 47.6286C39.6843 47.7446 39.5658 47.8382 39.4311 47.9025C39.2965 47.9667 39.1492 48 39.0001 48Z" fill="white"/>
<path d="M39 52H25C24.2044 52 23.4413 51.6839 22.8787 51.1213C22.3161 50.5587 22 49.7956 22 49C22 48.2044 22.3161 47.4413 22.8787 46.8787C23.4413 46.3161 24.2044 46 25 46H39C39.7956 46 40.5587 46.3161 41.1213 46.8787C41.6839 47.4413 42 48.2044 42 49C42 49.7956 41.6839 50.5587 41.1213 51.1213C40.5587 51.6839 39.7956 52 39 52ZM25 48C24.7348 48 24.4804 48.1054 24.2929 48.2929C24.1054 48.4804 24 48.7348 24 49C24 49.2652 24.1054 49.5196 24.2929 49.7071C24.4804 49.8946 24.7348 50 25 50H39C39.2652 50 39.5196 49.8946 39.7071 49.7071C39.8946 49.5196 40 49.2652 40 49C40 48.7348 39.8946 48.4804 39.7071 48.2929C39.5196 48.1054 39.2652 48 39 48H25Z" fill="white"/>
<path d="M44 64H20C19.2044 64 18.4413 63.6839 17.8787 63.1213C17.3161 62.5587 17 61.7956 17 61C17 60.2044 17.3161 59.4413 17.8787 58.8787C18.4413 58.3161 19.2044 58 20 58H44C44.7956 58 45.5587 58.3161 46.1213 58.8787C46.6839 59.4413 47 60.2044 47 61C47 61.7956 46.6839 62.5587 46.1213 63.1213C45.5587 63.6839 44.7956 64 44 64ZM20 60C19.7348 60 19.4804 60.1054 19.2929 60.2929C19.1054 60.4804 19 60.7348 19 61C19 61.2652 19.1054 61.5196 19.2929 61.7071C19.4804 61.8946 19.7348 62 20 62H44C44.2652 62 44.5196 61.8946 44.7071 61.7071C44.8946 61.5196 45 61.2652 45 61C45 60.7348 44.8946 60.4804 44.7071 60.2929C44.5196 60.1054 44.2652 60 44 60H20Z" fill="white"/>
<path d="M21 59.0001H19V56.2651C19.0025 55.4021 19.2272 54.5544 19.6524 53.8035C20.0777 53.0526 20.6892 52.424 21.428 51.9781L24.485 50.1431L25.515 51.8571L22.457 53.6921C22.0137 53.9598 21.6469 54.3372 21.3917 54.7878C21.1365 55.2385 21.0016 55.7472 21 56.2651V59.0001Z" fill="white"/>
<path d="M45.0001 59.0001H43.0001V56.2651C42.9985 55.7472 42.8636 55.2385 42.6084 54.7878C42.3533 54.3372 41.9864 53.9598 41.5431 53.6921L38.4851 51.8571L39.5151 50.1431L42.5721 51.9781C43.3109 52.424 43.9224 53.0526 44.3477 53.8035C44.773 54.5544 44.9976 55.4021 45.0001 56.2651V59.0001Z" fill="white"/>
<path d="M58 31H44C43.7902 30.9998 43.5857 30.9337 43.4156 30.8109C43.2455 30.6882 43.1183 30.515 43.052 30.316L41.052 24.316C41.0019 24.1657 40.9883 24.0058 41.0122 23.8492C41.0361 23.6926 41.0968 23.544 41.1893 23.4155C41.2819 23.287 41.4037 23.1823 41.5446 23.1101C41.6855 23.0379 41.8416 23.0001 42 23H60C60.1583 23.0001 60.3144 23.0379 60.4553 23.1101C60.5963 23.1823 60.718 23.287 60.8106 23.4155C60.9032 23.544 60.9639 23.6926 60.9878 23.8492C61.0117 24.0058 60.998 24.1657 60.948 24.316L58.948 30.316C58.8817 30.515 58.7545 30.6882 58.5843 30.8109C58.4142 30.9337 58.2098 30.9998 58 31ZM44.721 29H57.279L58.612 25H43.388L44.721 29Z" fill="white"/>
<path d="M58 34H44C43.7348 34 43.4804 33.8946 43.2929 33.7071C43.1054 33.5196 43 33.2652 43 33V30C43 29.7348 43.1054 29.4804 43.2929 29.2929C43.4804 29.1054 43.7348 29 44 29H58C58.2652 29 58.5196 29.1054 58.7071 29.2929C58.8946 29.4804 59 29.7348 59 30V33C59 33.2652 58.8946 33.5196 58.7071 33.7071C58.5196 33.8946 58.2652 34 58 34ZM45 32H57V31H45V32Z" fill="white"/>
<path d="M59.0521 24.316L58.2791 22H43.7211L42.9481 24.316L41.0481 23.684L42.0481 20.684C42.1146 20.4843 42.2424 20.3107 42.4134 20.1879C42.5843 20.0651 42.7896 19.9993 43.0001 20H59.0001C59.2099 20.0002 59.4143 20.0663 59.5845 20.1891C59.7546 20.3118 59.8818 20.485 59.9481 20.684L60.9481 23.684L59.0521 24.316Z" fill="white"/>
<path d="M58 22H44C43.7348 22 43.4804 21.8946 43.2929 21.7071C43.1054 21.5196 43 21.2652 43 21V18C43 17.7348 43.1054 17.4804 43.2929 17.2929C43.4804 17.1054 43.7348 17 44 17H58C58.2652 17 58.5196 17.1054 58.7071 17.2929C58.8946 17.4804 59 17.7348 59 18V21C59 21.2652 58.8946 21.5196 58.7071 21.7071C58.5196 21.8946 58.2652 22 58 22ZM45 20H57V19H45V20Z" fill="white"/>
<path d="M59 18H57V14C57 14.2652 56.8946 14.5196 56.7071 14.7071C56.5196 14.8946 56.2652 15 56 15H53C52.7348 15 52.4804 14.8946 52.2929 14.7071C52.1054 14.5196 52 14.2652 52 14V12H51V14C51 14.2652 50.8946 14.5196 50.7071 14.7071C50.5196 14.8946 50.2652 15 50 15H47C46.7348 15 46.4804 14.8946 46.2929 14.7071C46.1054 14.5196 46 14.2652 46 14V12H45V18H43V11C43 10.7348 43.1054 10.4804 43.2929 10.2929C43.4804 10.1054 43.7348 10 44 10H47C47.2652 10 47.5196 10.1054 47.7071 10.2929C47.8946 10.4804 48 10.7348 48 11V13H49V11C49 10.7348 49.1054 10.4804 49.2929 10.2929C49.4804 10.1054 49.7348 10 50 10H53C53.2652 10 53.5196 10.1054 53.7071 10.2929C53.8946 10.4804 54 10.7348 54 11V13H55V11C55 10.7348 55.1054 10.4804 55.2929 10.2929C55.4804 10.1054 55.7348 10 56 10H58C58.2652 10 58.5196 10.1054 58.7071 10.2929C58.8946 10.4804 59 10.7348 59 11V18Z" fill="white"/>
<path d="M57.0001 48H45.0001C44.8626 48.0004 44.7265 47.9723 44.6003 47.9177C44.4741 47.8631 44.3605 47.783 44.2666 47.6825C44.1728 47.582 44.1007 47.4632 44.0548 47.3335C44.009 47.2039 43.9903 47.0662 44.0001 46.929L45.0001 32.929C45.0181 32.6763 45.1313 32.4398 45.3169 32.2674C45.5026 32.0949 45.7467 31.9994 46.0001 32H56.0001V34H46.9311L46.0741 46H55.9261L55.2171 36.071L57.2111 35.929L57.9971 46.929C58.0068 47.0659 57.9883 47.2034 57.9426 47.3328C57.8969 47.4623 57.8251 47.5809 57.7315 47.6814C57.638 47.7818 57.5248 47.862 57.399 47.9168C57.2731 47.9716 57.1373 47.9999 57.0001 48Z" fill="white"/>
<path d="M57 52H45C44.2044 52 43.4413 51.6839 42.8787 51.1213C42.3161 50.5587 42 49.7956 42 49C42 48.2044 42.3161 47.4413 42.8787 46.8787C43.4413 46.3161 44.2044 46 45 46H57C57.7956 46 58.5587 46.3161 59.1213 46.8787C59.6839 47.4413 60 48.2044 60 49C60 49.7956 59.6839 50.5587 59.1213 51.1213C58.5587 51.6839 57.7956 52 57 52ZM45 48C44.7348 48 44.4804 48.1054 44.2929 48.2929C44.1054 48.4804 44 48.7348 44 49C44 49.2652 44.1054 49.5196 44.2929 49.7071C44.4804 49.8946 44.7348 50 45 50H57C57.2652 50 57.5196 49.8946 57.7071 49.7071C57.8946 49.5196 58 49.2652 58 49C58 48.7348 57.8946 48.4804 57.7071 48.2929C57.5196 48.1054 57.2652 48 57 48H45Z" fill="white"/>
<path d="M61 64H44V62H61C61.2652 62 61.5196 61.8946 61.7071 61.7071C61.8946 61.5196 62 61.2652 62 61C62 60.7348 61.8946 60.4804 61.7071 60.2929C61.5196 60.1054 61.2652 60 61 60H49V58H61C61.7956 58 62.5587 58.3161 63.1213 58.8787C63.6839 59.4413 64 60.2044 64 61C64 61.7956 63.6839 62.5587 63.1213 63.1213C62.5587 63.6839 61.7956 64 61 64Z" fill="white"/>
<path d="M43.0519 53.765L41.7629 52.235C41.8519 52.161 41.9419 52.089 42.0359 52.021L44.5829 50.188L45.7509 51.812L43.1999 53.646C43.1489 53.685 43.0999 53.724 43.0519 53.765Z" fill="white"/>
<path d="M62 59H60V56.265C60.016 55.7654 59.9159 55.2689 59.7077 54.8145C59.4995 54.3601 59.1888 53.9601 58.8 53.646L56.251 51.812L57.419 50.188L59.968 52.023C60.6171 52.5198 61.1396 53.163 61.4928 53.9003C61.8459 54.6375 62.0197 55.4478 62 56.265V59Z" fill="white"/>
<path d="M19 48H7C6.73478 48 6.48043 47.8946 6.29289 47.7071C6.10536 47.5196 6 47.2652 6 47V44C6 43.7348 6.10536 43.4804 6.29289 43.2929C6.48043 43.1054 6.73478 43 7 43H19C19.2652 43 19.5196 43.1054 19.7071 43.2929C19.8946 43.4804 20 43.7348 20 44V47C20 47.2652 19.8946 47.5196 19.7071 47.7071C19.5196 47.8946 19.2652 48 19 48ZM8 46H18V45H8V46Z" fill="white"/>
<path d="M19 52H7C6.20435 52 5.44129 51.6839 4.87868 51.1213C4.31607 50.5587 4 49.7956 4 49C4 48.2044 4.31607 47.4413 4.87868 46.8787C5.44129 46.3161 6.20435 46 7 46H19C19.7956 46 20.5587 46.3161 21.1213 46.8787C21.6839 47.4413 22 48.2044 22 49C22 49.7956 21.6839 50.5587 21.1213 51.1213C20.5587 51.6839 19.7956 52 19 52ZM7 48C6.73478 48 6.48043 48.1054 6.29289 48.2929C6.10536 48.4804 6 48.7348 6 49C6 49.2652 6.10536 49.5196 6.29289 49.7071C6.48043 49.8946 6.73478 50 7 50H19C19.2652 50 19.5196 49.8946 19.7071 49.7071C19.8946 49.5196 20 49.2652 20 49C20 48.7348 19.8946 48.4804 19.7071 48.2929C19.5196 48.1054 19.2652 48 19 48H7Z" fill="white"/>
<path d="M20 64H3C2.20435 64 1.44129 63.6839 0.87868 63.1213C0.31607 62.5587 0 61.7956 0 61C0 60.2044 0.31607 59.4413 0.87868 58.8787C1.44129 58.3161 2.20435 58 3 58H15V60H3C2.73478 60 2.48043 60.1054 2.29289 60.2929C2.10536 60.4804 2 60.7348 2 61C2 61.2652 2.10536 61.5196 2.29289 61.7071C2.48043 61.8946 2.73478 62 3 62H20V64Z" fill="white"/>
<path d="M4.00001 59H2.00001V56.265C1.98051 55.4476 2.15461 54.6372 2.50811 53.9C2.86161 53.1627 3.38448 52.5196 4.03401 52.023L6.58301 50.188L7.75101 51.812L5.20001 53.646C4.8112 53.9601 4.50049 54.3601 4.29228 54.8145C4.08407 55.2689 3.98403 55.7654 4.00001 56.265V59Z" fill="white"/>
<path d="M20.948 53.765C20.9 53.724 20.848 53.685 20.8 53.648L18.249 51.812L19.417 50.188L21.966 52.023C22.058 52.089 22.148 52.161 22.237 52.235L20.948 53.765Z" fill="white"/>
<path d="M19 45.0001H6C5.20435 45.0001 4.44129 44.684 3.87868 44.1214C3.31607 43.5588 3 42.7957 3 42.0001V39.0001C3 38.8126 3.05267 38.629 3.152 38.4701L8 30.7131V28.0001H10V31.0001C10 31.1875 9.94733 31.3711 9.848 31.5301L5 39.2871V42.0001C5 42.2653 5.10536 42.5196 5.29289 42.7072C5.48043 42.8947 5.73478 43.0001 6 43.0001H19C19.2652 43.0001 19.5196 42.8947 19.7071 42.7072C19.8946 42.5196 20 42.2653 20 42.0001V33.0761L19.242 28.1521L21.219 27.8521L21.988 32.8521C21.9958 32.901 21.9998 32.9505 22 33.0001V42.0001C22 42.7957 21.6839 43.5588 21.1213 44.1214C20.5587 44.684 19.7956 45.0001 19 45.0001Z" fill="white"/>
<path d="M20.6032 23.8478L18.6265 24.1519L18.9342 26.1523L20.9109 25.8483L20.6032 23.8478Z" fill="white"/>
<path d="M4 30H1C0.734784 30 0.48043 29.8946 0.292893 29.7071C0.105357 29.5196 0 29.2652 0 29V24C3.28176e-05 23.8274 0.044715 23.6578 0.129702 23.5077C0.214689 23.3575 0.337089 23.2319 0.485 23.143L5.293 20.258L7.168 17.445C7.25935 17.3081 7.38308 17.1958 7.52822 17.1182C7.67335 17.0406 7.83541 17 8 17H12V15C12 14.7348 12.1054 14.4804 12.2929 14.2929C12.4804 14.1054 12.7348 14 13 14H16C16.1726 14 16.3422 14.0447 16.4923 14.1297C16.6425 14.2147 16.7681 14.3371 16.857 14.485L19.857 19.485C19.924 19.5962 19.9685 19.7196 19.988 19.848L20.296 21.848L18.319 22.148L18.041 20.342L15.434 16H14V18C14 18.2652 13.8946 18.5196 13.7071 18.7071C13.5196 18.8946 13.2652 19 13 19H8.535L6.835 21.555C6.75286 21.6773 6.64459 21.7797 6.518 21.855L2 24.566V28H3.917L9.333 27.1L11.105 23.555L12.895 24.449L10.895 28.449C10.8243 28.5902 10.7213 28.7126 10.5942 28.8063C10.4672 28.9 10.3197 28.9622 10.164 28.988L4.164 29.988C4.10976 29.9965 4.0549 30.0005 4 30Z" fill="white"/>
</svg>
