<svg width="60" height="50" viewBox="0 0 60 50" fill="none" xmlns="http://www.w3.org/2000/svg">
<path d="M59.3001 13.8622L57.2301 10.1484C56.9601 9.65187 56.3401 9.47601 55.8701 9.76567L55.1901 10.1691L54.6201 9.14498C54.4801 8.90704 54.2701 8.73118 54.0101 8.66911C53.7501 8.5967 53.4801 8.62773 53.2501 8.76222L49.5601 10.9657C49.0901 11.2553 48.9201 11.8864 49.2001 12.3829L49.7701 13.407L49.1501 13.7795L47.2801 10.4277C47.1401 10.1691 46.8801 9.98291 46.5901 9.93118C46.3101 9.87946 46.0101 9.95187 45.7801 10.1484L41.0301 14.1829C41.0201 14.1933 41.0001 14.2139 40.9901 14.2243C40.6801 14.276 40.3701 14.3898 40.0801 14.5657C39.2701 15.0519 38.7901 15.8381 38.7601 16.6036L23.4101 23.1726C22.6501 22.1795 21.2501 21.8381 20.2301 22.4484C19.9201 22.6346 19.6701 22.8829 19.4901 23.1726C19.2901 23.0795 19.0801 23.007 18.8501 22.9553L18.3901 19.2622C18.9601 18.8484 19.3301 18.0829 19.3301 17.2036C19.3301 16.8312 19.2701 16.4898 19.1501 16.1795C20.2101 15.3001 20.3901 13.6864 20.3901 12.2277V8.46222C20.3901 7.89325 19.9401 7.42773 19.3901 7.42773H16.4301C16.0001 7.42773 15.6401 7.6967 15.4901 8.0898C15.3401 7.73808 14.9901 7.4898 14.5901 7.4898H11.2901C10.8901 7.4898 10.5501 7.73808 10.3901 8.0898C10.2401 7.6967 9.88006 7.42773 9.45006 7.42773H6.49006C5.94006 7.42773 5.49006 7.89325 5.49006 8.46222V12.2277C5.49006 13.2105 5.49006 15.1553 6.74006 16.1691C6.62006 16.4795 6.55006 16.8312 6.55006 17.2036C6.55006 18.0829 6.92006 18.8381 7.49006 19.2519L5.61006 34.5208C4.44006 34.6864 3.54006 35.6795 3.54006 36.8691C3.54006 37.1898 3.60006 37.4898 3.72006 37.7691C2.78006 38.5346 2.14006 40.0036 2.03006 41.7933C1.17006 42.1346 0.560059 42.9933 0.560059 44.007C0.560059 45.3208 1.58006 46.3967 2.83006 46.3967H21.9801L22.2401 46.8622C22.5601 47.4415 23.0801 47.845 23.7001 48.0208C23.9101 48.0726 24.1101 48.1036 24.3201 48.1036C24.7501 48.1036 25.1701 47.9795 25.5501 47.7519C26.3001 47.2967 26.7601 46.4588 26.7601 45.5691C26.7601 45.4243 26.7501 45.2795 26.7201 45.1346V45.1243C28.3401 44.0277 29.3501 42.5277 29.5201 41.1622C29.8701 41.1415 30.2101 41.0381 30.5101 40.8519C31.0901 40.5105 31.4901 39.9415 31.6301 39.2381C31.7401 38.7105 31.6901 38.1519 31.5001 37.645L44.6501 27.1864C44.9401 27.3415 45.2701 27.4243 45.6301 27.4243C46.1101 27.4243 46.5901 27.2795 47.0301 27.0208C47.3301 26.845 47.5901 26.6174 47.8001 26.3588C47.8101 26.3588 47.8201 26.3484 47.8301 26.3484L53.5801 24.1139C53.8501 24.0105 54.0701 23.7829 54.1701 23.4932C54.2701 23.2139 54.2401 22.8932 54.0901 22.6346L52.2201 19.2829L52.8401 18.9105L53.4201 19.9346C53.6001 20.276 53.9401 20.4519 54.2801 20.4519C54.4501 20.4519 54.6201 20.4105 54.7801 20.3174L58.4701 18.1139C58.7001 17.9795 58.8701 17.7519 58.9301 17.4829C59.0001 17.2243 58.9701 16.945 58.8301 16.707L58.2601 15.6726L58.9401 15.2691C59.1701 15.1346 59.3401 14.907 59.4001 14.6484C59.4701 14.3795 59.4401 14.1001 59.3001 13.8622ZM7.49006 9.4967H8.45006V11.4415C8.45006 12.0105 8.90006 12.476 9.45006 12.476H11.2901C11.8501 12.476 12.2901 12.0105 12.2901 11.4415V9.55877H13.5901V11.4415C13.5901 12.0105 14.0301 12.476 14.5901 12.476H16.4301C16.9801 12.476 17.4301 12.0105 17.4301 11.4415V9.4967H18.3901V12.2277C18.3901 14.7622 17.8201 14.7622 17.0301 14.7622H8.86006C8.04006 14.7622 7.49006 14.7622 7.49006 12.2277V9.4967ZM11.0701 26.845L15.3301 34.4898H7.62006L9.48006 19.5726H16.4101L16.8301 22.976C16.1501 23.1001 15.4501 23.3484 14.7701 23.7001C14.5001 23.4622 14.1901 23.2864 13.8301 23.1933C13.2001 23.0174 12.5401 23.1001 11.9701 23.4415C11.4001 23.7829 11.0001 24.3312 10.8301 24.9829C10.6601 25.6243 10.7501 26.2864 11.0701 26.845ZM8.61006 17.5036C8.59006 17.4415 8.55006 17.3484 8.55006 17.2036C8.55006 17.0484 8.59006 16.9346 8.62006 16.8829C8.69006 16.8726 17.1901 16.8726 17.2601 16.8829C17.2901 16.9346 17.3301 17.0484 17.3301 17.2036C17.3301 17.3484 17.3001 17.4415 17.2701 17.5036H8.61006ZM5.97006 36.5588H16.4801L16.8201 37.1691H5.97006C5.73006 37.1691 5.54006 37.0139 5.54006 36.8691C5.54006 36.7243 5.72006 36.5588 5.97006 36.5588ZM5.30006 39.2381C5.39006 39.2381 5.48006 39.2277 5.56006 39.1967C5.69006 39.2277 5.83006 39.2381 5.97006 39.2381H17.9801L19.3201 41.6381H4.05006C4.21006 40.1691 4.85006 39.2381 5.30006 39.2381ZM2.83006 44.3277C2.68006 44.3277 2.56006 44.1829 2.56006 44.007C2.56006 43.8415 2.68006 43.707 2.83006 43.707H20.4701L20.8201 44.3277H2.83006ZM24.5401 45.9726C24.4001 46.0553 24.2701 46.0346 24.2101 46.0139C24.1401 45.9932 24.0401 45.9519 23.9701 45.8277L12.8001 25.8001C12.7301 25.6967 12.7401 25.5829 12.7601 25.5105C12.7801 25.4484 12.8301 25.3243 12.9701 25.2415C13.1201 25.1484 13.2501 25.1691 13.3201 25.1898C13.3801 25.2105 13.4801 25.2519 13.5401 25.3657L24.7101 45.3622C24.7501 45.4243 24.7601 45.4967 24.7601 45.5691C24.7601 45.6932 24.7001 45.8691 24.5401 45.9726ZM25.8401 43.2519L15.9001 25.4381C16.5901 25.107 17.2901 24.9312 17.9001 24.9312C18.4401 24.9312 18.9001 25.0864 19.0401 25.345C19.0901 25.4381 27.4401 40.3864 27.4901 40.4691C27.7701 40.9657 27.2301 42.2174 25.8401 43.2519ZM29.6801 38.8036C29.6601 38.8864 29.6201 39.0001 29.5101 39.0622C29.3401 39.1657 29.0401 39.1243 28.8501 38.7726L21.1501 24.9726C20.9901 24.6932 21.0301 24.3622 21.2301 24.2381C21.2801 24.207 21.3401 24.1967 21.4001 24.1967C21.5401 24.1967 21.7601 24.2795 21.9001 24.5277L29.6001 38.3277C29.6801 38.4726 29.7101 38.6484 29.6801 38.8036ZM30.5101 35.8139L24.4501 24.9726L39.4901 18.5277L43.4101 25.5622L30.5101 35.8139ZM46.0301 25.2208C45.9001 25.3036 45.7501 25.3553 45.6301 25.3553C45.6301 25.3553 45.6201 25.345 45.6001 25.345L40.7601 16.676C40.8001 16.5933 40.9001 16.4588 41.0801 16.3553C41.2001 16.2829 41.3401 16.1898 41.5101 16.2312L46.3501 24.9001C46.3101 24.9829 46.2201 25.1174 46.0301 25.2208ZM48.1601 24.0105C48.1501 23.9898 48.1401 23.9795 48.1301 23.9588L43.1901 15.1036C43.1801 15.0829 43.1701 15.0622 43.1601 15.0519L46.1401 12.5174L51.7701 22.6139L48.1601 24.0105ZM56.0301 15.8174L56.6001 16.8415L54.6501 18.0105L54.0701 16.9864C53.8001 16.4898 53.1901 16.3139 52.7101 16.6036L51.2201 17.4933L50.1501 15.5691L51.6401 14.6795C52.1101 14.4001 52.2801 13.7691 52.0001 13.2726L51.4301 12.2484L53.3801 11.0795L53.9601 12.1036C54.2301 12.6001 54.8401 12.7657 55.3201 12.476L56.0001 12.0726L57.0701 13.9967L56.4001 14.4001C56.1701 14.5346 56.0001 14.7622 55.9301 15.0312C55.8601 15.3001 55.9001 15.5795 56.0301 15.8174Z" fill="white"/>
<path d="M39.3601 9.78616C39.1801 9.93099 38.9601 10.0034 38.7501 10.0034C38.4501 10.0034 38.1501 9.86892 37.9601 9.59996L33.2101 3.2172C32.8701 2.77237 32.9501 2.12065 33.3901 1.76892C33.8301 1.4172 34.4501 1.5103 34.7901 1.95513L39.5401 8.33789C39.8801 8.79306 39.8001 9.44478 39.3601 9.78616Z" fill="white"/>
<path d="M33.0301 16.3446C32.8501 16.4894 32.6301 16.5515 32.4201 16.5515C32.1201 16.5515 31.8201 16.417 31.6201 16.148L26.8701 9.77562C26.5401 9.32045 26.6201 8.66872 27.0601 8.317C27.4901 7.97562 28.1201 8.05838 28.4601 8.51355L33.2101 14.886C33.5501 15.3411 33.4601 15.9929 33.0301 16.3446Z" fill="white"/>
<path d="M33.1101 10.4792C32.9301 10.6241 32.7101 10.6965 32.5001 10.6965C32.2001 10.6965 31.9001 10.5516 31.7101 10.293L26.9601 3.91027C26.6201 3.4551 26.7001 2.80337 27.1401 2.46199C27.5801 2.11027 28.2001 2.19303 28.5401 2.6482L33.2901 9.03096C33.6301 9.47579 33.5501 10.1275 33.1101 10.4792Z" fill="white"/>
<path d="M54.25 45.8614H29.5C28.948 45.8614 28.5 45.398 28.5 44.827C28.5 44.2559 28.948 43.7925 29.5 43.7925H54.25C54.802 43.7925 55.25 44.2559 55.25 44.827C55.25 45.398 54.802 45.8614 54.25 45.8614Z" fill="white"/>
</svg>
