<svg width="90" height="63" viewBox="0 0 90 63" fill="none" xmlns="http://www.w3.org/2000/svg">
<rect x="21" y="16" width="42" height="31" fill="white"/>
<path fill-rule="evenodd" clip-rule="evenodd" d="M13.1152 1.1673C6.1476 1.7147 0.88113 7.3804 0.54195 14.3612C0.2625 20.1129 0 26.7316 0 31.3006C0 35.9219 0.26854 42.6401 0.55155 48.4372C0.888 55.3287 6.0339 60.9567 12.9044 61.591C20.5099 62.2933 31.5142 63 45 63C58.4507 63 69.4329 62.2969 77.0362 61.5965C83.9333 60.9611 89.0894 55.2967 89.4213 48.3783C89.714 42.2748 90 35.2911 90 31.3006C90 27.353 89.7201 20.4759 89.4307 14.4196C89.0958 7.4118 83.821 1.7109 76.8267 1.1627C69.3405 0.576001 58.5426 0 45 0C31.4223 0 20.6036 0.578999 13.1152 1.1673ZM36 17.943L59.2 31.3006L36 44.6582V17.943Z" fill="#FF0000"/>
</svg>
