<svg width="10" height="20" viewBox="0 0 10 20" fill="none" xmlns="http://www.w3.org/2000/svg">
<path fill-rule="evenodd" clip-rule="evenodd" d="M4.94812 0.000148529C4.68862 0.00376949 4.44069 0.108124 4.25671 0.291164L0.307488 4.24234C0.211508 4.33448 0.134879 4.44485 0.0820885 4.56698C0.0292983 4.68911 0.00140847 4.82054 5.19828e-05 4.95359C-0.0013045 5.08663 0.0238996 5.21861 0.0741887 5.34179C0.124478 5.46497 0.198841 5.57688 0.292922 5.67096C0.387003 5.76504 0.498911 5.83941 0.622092 5.8897C0.745273 5.93998 0.87725 5.96519 1.01029 5.96383C1.14334 5.96248 1.27478 5.93459 1.39691 5.8818C1.51904 5.82901 1.6294 5.75238 1.72155 5.6564L3.96374 3.41226V16.5841L1.72155 14.3419C1.62836 14.2462 1.51691 14.17 1.3938 14.118C1.27069 14.066 1.1384 14.0392 1.00476 14.0392C0.805824 14.0393 0.611426 14.0986 0.446416 14.2098C0.281406 14.3209 0.153282 14.4787 0.078424 14.663C0.00356643 14.8473 -0.0146229 15.0497 0.0261808 15.2444C0.0669844 15.4391 0.164927 15.6173 0.307488 15.756L4.25671 19.7052C4.44425 19.8927 4.69857 19.998 4.96374 19.998C5.22891 19.998 5.48323 19.8927 5.67077 19.7052L9.61999 15.756C9.71597 15.6639 9.7926 15.5535 9.84539 15.4314C9.89818 15.3092 9.92607 15.1778 9.92742 15.0448C9.92878 14.9117 9.90358 14.7797 9.85329 14.6566C9.803 14.5334 9.72864 14.4215 9.63455 14.3274C9.54047 14.2333 9.42857 14.1589 9.30538 14.1086C9.1822 14.0584 9.05023 14.0332 8.91718 14.0345C8.78414 14.0359 8.6527 14.0638 8.53057 14.1165C8.40844 14.1693 8.29807 14.246 8.20593 14.3419L5.96374 16.5841V3.41226L8.20593 5.6564C8.29807 5.75238 8.40844 5.82901 8.53057 5.8818C8.6527 5.93459 8.78414 5.96248 8.91718 5.96383C9.05023 5.96519 9.1822 5.93998 9.30538 5.8897C9.42857 5.83941 9.54047 5.76504 9.63455 5.67096C9.72864 5.57688 9.803 5.46497 9.85329 5.34179C9.90358 5.21861 9.92878 5.08663 9.92742 4.95359C9.92607 4.82054 9.89818 4.68911 9.84539 4.56698C9.7926 4.44485 9.71597 4.33448 9.61999 4.24234L5.67077 0.291164C5.57591 0.196777 5.46307 0.122387 5.33894 0.0723987C5.21481 0.0224107 5.08191 -0.00215756 4.94812 0.000148529Z" fill="#BEBEBE"/>
</svg>
