<svg width="79" height="49" viewBox="0 0 79 49" fill="none" xmlns="http://www.w3.org/2000/svg">
<path d="M1.3 21.35C0.433334 22.2167 0 23.2667 0 24.5C0 25.7333 0.433334 26.8 1.3 27.7C2.2 28.5667 3.26667 29 4.5 29L63.65 29L51.3 41.35C50.4333 42.2167 50 43.2667 50 44.5C50 45.7333 50.4333 46.8 51.3 47.7C52.2 48.5667 53.2667 49 54.5 49C55.7333 49 56.7833 48.5667 57.65 47.7L77.65 27.7C78.55 26.8 79 25.7333 79 24.5C79 23.2667 78.55 22.2167 77.65 21.35L57.65 1.35C56.7833 0.449998 55.7333 0 54.5 0C53.2667 0 52.2 0.449998 51.3 1.35C50.4333 2.21667 50 3.26667 50 4.5C50 5.73333 50.4333 6.8 51.3 7.7L63.65 20L4.5 20C3.26667 20 2.2 20.45 1.3 21.35Z" fill="#BEBEBE"/>
</svg>
