<svg width="94" height="73" viewBox="0 0 94 73" fill="none" xmlns="http://www.w3.org/2000/svg">
<path d="M85.833 15.377H8.16699C4.57699 15.377 1.66699 12.467 1.66699 8.87695C1.66699 5.28695 4.57699 2.37695 8.16699 2.37695H85.833C89.423 2.37695 92.333 5.28695 92.333 8.87695C92.333 12.467 89.423 15.377 85.833 15.377Z" fill="#BEBEBE"/>
<path d="M85.833 43.4189H8.16699C4.57699 43.4189 1.66699 40.5089 1.66699 36.9189C1.66699 33.3289 4.57699 30.4189 8.16699 30.4189H85.833C89.423 30.4189 92.333 33.3289 92.333 36.9189C92.333 40.5089 89.423 43.4189 85.833 43.4189Z" fill="#BEBEBE"/>
<path d="M85.833 71.46H8.16699C4.57699 71.46 1.66699 68.55 1.66699 64.96C1.66699 61.37 4.57699 58.46 8.16699 58.46H85.833C89.423 58.46 92.333 61.37 92.333 64.96C92.333 68.55 89.423 71.46 85.833 71.46Z" fill="#BEBEBE"/>
</svg>
