<svg width="99" height="88" viewBox="0 0 99 88" fill="none" xmlns="http://www.w3.org/2000/svg">
<path d="M6.39374 37.1442L0.721864 18.4186C-1.05724e-05 15.8605 1.44374 13.2 3.91874 12.3814C6.49686 11.6651 9.17811 13.0977 10.0031 15.5535L12.0656 22.5116C19.5937 9.82325 33.5156 1.22791 49.5 1.22791C67.3406 1.22791 82.7062 12.0744 89.3062 27.4233C90.6469 30.5953 88.275 34.1767 84.8719 34.1767C82.9125 34.1767 81.1594 33.0512 80.4375 31.3116C75.2812 19.2372 63.4219 10.8465 49.5 10.8465C36.9187 10.8465 25.8844 17.8047 20.2125 28.0372L28.5656 25.5814C31.1437 24.8651 33.825 26.2977 34.65 28.7535C35.3719 31.3116 33.9281 33.9721 31.4531 34.7907L12.5812 40.4186C9.89999 41.1349 7.21874 39.7023 6.39374 37.1442Z" fill="#BEBEBE"/>
<path d="M88.9969 72.3442L86.9344 65.3861C79.4063 78.1768 65.4844 86.7722 49.5 86.7722C31.6594 86.7722 16.2938 75.9256 9.69376 60.5768C8.35314 57.4047 10.725 53.8233 14.1281 53.8233C16.0875 53.8233 17.8406 54.9489 18.5625 56.6884C23.7188 68.7629 35.5781 77.1535 49.5 77.1535C62.0813 77.1535 73.1156 70.1954 78.7875 59.9628L70.4344 62.4187C67.8563 63.1349 65.175 61.7024 64.35 59.2466C63.6281 56.6884 65.0719 54.028 67.5469 53.2094L86.4188 47.5815C88.9969 46.8652 91.6781 48.2977 92.5031 50.8559L98.2781 69.5815C99 72.1396 97.5563 74.8001 95.0813 75.6187C92.5031 76.3349 89.7188 74.9024 88.9969 72.3442Z" fill="#BEBEBE"/>
</svg>
