<svg width="79" height="49" viewBox="0 0 79 49" fill="none" xmlns="http://www.w3.org/2000/svg">
<path d="M77.7 27.65C78.5667 26.7833 79 25.7333 79 24.5C79 23.2667 78.5667 22.2 77.7 21.3C76.8 20.4333 75.7333 20 74.5 20L15.35 20L27.7 7.65C28.5667 6.78333 29 5.73333 29 4.5C29 3.26667 28.5667 2.2 27.7 1.3C26.8 0.433333 25.7333 0 24.5 0C23.2667 0 22.2167 0.433333 21.35 1.3L1.35 21.3C0.449998 22.2 0 23.2667 0 24.5C0 25.7333 0.449998 26.7833 1.35 27.65L21.35 47.65C22.2167 48.55 23.2667 49 24.5 49C25.7333 49 26.8 48.55 27.7 47.65C28.5667 46.7833 29 45.7333 29 44.5C29 43.2667 28.5667 42.2 27.7 41.3L15.35 29L74.5 29C75.7333 29 76.8 28.55 77.7 27.65Z" fill="#BEBEBE"/>
</svg>
