<svg width="507" height="774" viewBox="0 0 507 774" fill="none" xmlns="http://www.w3.org/2000/svg">
<path d="M507 736.734L506.544 773.381H0.416882L0 742.27C6.04486 728.578 18.4733 721.999 21.0658 720.762H489.1C501.203 725.061 507 736.734 507 736.734Z" fill="white"/>
<path d="M400.029 593.53H187.117C332.232 516.067 354.705 391.444 355.669 385.621C339.736 462.706 238.003 538.071 198.815 563.632C159.589 589.205 151.486 584.085 151.486 584.085C108.872 563.632 55.1457 441.262 63.6659 432.325C72.199 423.362 125.053 393.945 125.053 393.945C196.262 355.149 230.786 260.502 261.075 246.862C291.338 233.222 290.049 210.632 290.049 210.632C272.578 249.442 178.349 252.842 137.429 274.585C96.4827 296.316 86.6859 314.216 86.6859 314.216C83.7025 299.312 87.9756 255.825 84.9792 262.639C81.9959 269.465 60.6825 301.019 43.2123 284.812C25.7291 268.606 18.4727 245.169 39.786 228.962C61.0864 212.743 180.889 96.3531 180.889 96.3531C166.403 66.0897 171.092 0 171.092 0C182.609 27.723 240.582 69.073 240.582 69.073C290.036 74.1799 428.182 121.093 470.795 279.692C511.273 430.189 410.438 578.783 400.029 593.53Z" fill="white"/>
<path d="M479.89 682.989V704.367H28.1536C26.8509 697.072 21.8091 659.344 55.2774 649.742C92.1198 639.151 107.935 629.406 107.31 607.532H401.489C401.789 611.05 404.811 636.558 426.62 648.022C450.057 660.399 473.506 645.899 479.89 682.989Z" fill="white"/>
</svg>
