<svg width="4171" height="6775" viewBox="0 0 4171 6775" fill="none" xmlns="http://www.w3.org/2000/svg">
<path d="M1912 607C1912 872 1424 923 1355 620L1241 111C1241 111 979 115 885 117C885 117 1005 1250 1018 1368C1024 1427 1081 1462 1144 1462H3029C3090 1462 3147 1426 3154 1368C3166 1250 3285 116 3285 116L2930 111L2816 620C2747 923 2259 872 2259 607V111C2249 111 1922 111 1912 111V607ZM3027 1707C3116 1707 3114 1573 3027 1573H1144C1062 1573 1043 1707 1156 1707H3027ZM775 139C768 67 800 7 887 6L1238 0C1291 0 1335 34 1348 82L1463 595C1503 773 1801 737 1801 607V101C1801 42 1855 0 1913 0H2258C2316 0 2370 42 2370 101V607C2370 737 2668 773 2708 595L2823 82C2836 34 2880 0 2933 0L3285 6C3371 7 3403 67 3396 139L3264 1380C3257 1442 3222 1497 3169 1532C3251 1640 3186 1796 3054 1816C2825 2439 3026 3545 3390 4092H3556C3839 4092 3870 4506 3595 4553C3595 4809 3545 5011 3305 5153C3786 5268 4145 5692 4170 6195L4171 6775C2781 6775 1390 6775 0 6775L1 6195C26 5696 381 5269 866 5153C626 5011 576 4809 576 4553C295 4505 337 4092 615 4092H782C1092 3631 1242 2850 1207 2290C1195 2104 1164 1943 1117 1816C985 1796 920 1640 1002 1532C949 1497 914 1442 907 1380L775 139ZM2936 1818H1235C1442 2445 1265 3514 913 4092H3258C2912 3524 2726 2458 2936 1818ZM111 6306V6664H4060V6306H111ZM113 6195H4058C4029 5659 3582 5233 3042 5233H1129C589 5233 142 5659 113 6195ZM1161 5122H3010C3350 5122 3484 4855 3484 4556H687C687 4855 821 5122 1161 5122ZM615 4445H3556C3717 4445 3713 4203 3556 4203C2576 4203 1595 4203 615 4203C454 4203 458 4445 615 4445Z" fill="white"/>
</svg>
