<svg width="3764" height="2597" viewBox="0 0 3764 2597" fill="none" xmlns="http://www.w3.org/2000/svg">
<path d="M3553.31 58.0621C2828.35 903.473 1762.86 709.283 1762.86 709.283V114.946C1762.93 93.6055 1757.04 72.6688 1745.86 54.4961C1734.67 36.3235 1718.63 21.6375 1699.54 12.0937C1680.45 2.54991 1659.08 -1.47226 1637.83 0.480765C1616.58 2.43379 1596.29 10.2843 1579.27 23.1473L73.2292 1151.41C50.4909 1168.47 32.0366 1190.6 19.3267 1216.03C6.61678 1241.46 0 1269.5 0 1297.93C0 1326.36 6.61678 1354.4 19.3267 1379.84C32.0366 1405.27 50.4909 1427.39 73.2292 1444.46L1577.3 2572.33C1594.32 2585.77 1614.79 2594.11 1636.36 2596.37C1657.92 2598.64 1679.69 2594.74 1699.12 2585.12C1718.55 2575.51 1734.86 2560.58 1746.14 2542.06C1757.43 2523.54 1763.22 2502.21 1762.86 2480.53V1886.19C3401.89 1886.19 3712.98 748.514 3763.59 140.053C3765.71 114.76 3759.61 89.4576 3746.18 67.9195C3732.75 46.3814 3712.71 29.7623 3689.06 20.5414C3665.42 11.3204 3639.42 9.99183 3614.96 16.7537C3590.49 23.5156 3568.87 38.0055 3553.31 58.0621Z" fill="white"/>
</svg>
