<svg width="95" height="95" viewBox="0 0 95 95" fill="none" xmlns="http://www.w3.org/2000/svg">
<path d="M91.8 39.7L82.6 38.7C81.5 38.6 80.6 37.8 80.3 36.8C79.7 35 79 33.3 78.2 31.7C77.7 30.7 77.8 29.6 78.5 28.7L84.3 21.5C85.4 20.1 85.3 18.1 84.1 16.9L78.1 10.9C76.8 9.6 74.8 9.5 73.5 10.7L66.2 16.4C65.3 17.1 64.2 17.2 63.2 16.7C61.6 15.9 59.8 15.1 58.1 14.6C57 14.3 56.3 13.4 56.2 12.3L55.2 3.1C55 1.3 53.5 0 51.7 0H43.1C41.3 0 39.8 1.3 39.6 3.1L38.6 12.3C38.5 13.4 37.7 14.3 36.7 14.6C34.9 15.2 33.2 15.9 31.6 16.7C30.6 17.2 29.5 17.1 28.6 16.4L21.4 10.6C20 9.5 18 9.6 16.8 10.8L10.8 16.8C9.5 18.1 9.4 20.1 10.6 21.4L16.4 28.6C17.1 29.4 17.2 30.6 16.7 31.6C15.9 33.3 15.2 35 14.6 36.7C14.3 37.7 13.4 38.5 12.3 38.6L3.1 39.6C1.3 39.8 0 41.3 0 43.1V51.7C0 53.5 1.3 55 3.1 55.2L12.3 56.2C13.4 56.3 14.3 57.1 14.6 58.1C15.2 59.9 15.9 61.6 16.7 63.2C17.2 64.2 17.1 65.3 16.4 66.2L10.6 73.4C9.5 74.8 9.6 76.8 10.8 78L16.8 84C18.1 85.3 20.1 85.4 21.4 84.2L28.6 78.4C29.4 77.7 30.6 77.6 31.6 78.1C33.3 78.9 35 79.6 36.7 80.2C37.7 80.5 38.5 81.4 38.6 82.5L39.6 91.7C39.8 93.5 41.3 94.8 43.1 94.8H51.7C53.5 94.8 55 93.5 55.2 91.7L56.2 82.5C56.3 81.4 57.1 80.5 58.1 80.2C59.9 79.6 61.6 78.9 63.2 78.1C64.2 77.6 65.3 77.7 66.2 78.4L73.4 84.2C74.8 85.3 76.8 85.2 78 84L84 78C85.3 76.7 85.4 74.7 84.2 73.4L78.4 66.2C77.7 65.4 77.6 64.2 78.1 63.2C78.9 61.5 79.6 59.8 80.2 58.1C80.5 57.1 81.4 56.3 82.5 56.2L91.7 55.2C93.5 55 94.8 53.5 94.8 51.7V43.1C94.9 41.3 93.6 39.9 91.8 39.7ZM47.4 63.9C38.3 63.9 30.9 56.5 30.9 47.4C30.9 38.3 38.3 30.9 47.4 30.9C56.5 30.9 63.9 38.3 63.9 47.4C63.9 56.5 56.5 63.9 47.4 63.9Z" fill="white"/>
</svg>
